<?xml version="1.0" encoding="UTF-8" standalone="no"?>
<!-- Generator: Adobe Illustrator 22.1.0, SVG Export Plug-In . SVG Version: 6.00 Build 0)  -->

<svg
   version="1.1"
   id="Layer_1"
   x="0px"
   y="0px"
   viewBox="0 0 1200 1200"
   xml:space="preserve"
   sodipodi:docname="logo512.svg"
   width="1200"
   height="1200"
   inkscape:version="1.1 (1:1.1+202105261517+ce6663b3b7)"
   inkscape:export-filename="/home/default/Projects/GitHub/vaxCompare/public/logo5122.png"
   inkscape:export-xdpi="96"
   inkscape:export-ydpi="96"
   xmlns:inkscape="http://www.inkscape.org/namespaces/inkscape"
   xmlns:sodipodi="http://sodipodi.sourceforge.net/DTD/sodipodi-0.dtd"
   xmlns:xlink="http://www.w3.org/1999/xlink"
   xmlns="http://www.w3.org/2000/svg"
   xmlns:svg="http://www.w3.org/2000/svg"><defs
   id="defs29" /><sodipodi:namedview
   id="namedview27"
   pagecolor="#ffffff"
   bordercolor="#666666"
   borderopacity="1.0"
   inkscape:pageshadow="2"
   inkscape:pageopacity="0.0"
   inkscape:pagecheckerboard="0"
   showgrid="false"
   inkscape:zoom="0.4125"
   inkscape:cx="847.27273"
   inkscape:cy="854.54545"
   inkscape:window-width="2560"
   inkscape:window-height="1001"
   inkscape:window-x="0"
   inkscape:window-y="0"
   inkscape:window-maximized="1"
   inkscape:current-layer="g166" />
<style
   type="text/css"
   id="style2">
	.st0{display:none;fill:none;stroke:#000000;stroke-miterlimit:10;}
	.st1{fill:url(#SVGID_1_);stroke:#000000;stroke-width:0.25;stroke-miterlimit:10;}
	.st2{fill:url(#SVGID_2_);stroke:#000000;stroke-width:0.25;stroke-miterlimit:10;}
</style>
<image
   style="display:none;overflow:visible"
   width="72"
   height="72"
   xlink:href="logo512.png"
   transform="matrix(1.6906,0,0,1.6906,39.14,39.14)"
   id="image4">
</image>
<line
   class="st0"
   x1="100"
   y1="-19.299999"
   x2="100"
   y2="219.3"
   id="line6" />
<line
   class="st0"
   x1="-19.299999"
   y1="100"
   x2="219.3"
   y2="100"
   id="line8" />
<linearGradient
   id="SVGID_1_"
   gradientUnits="userSpaceOnUse"
   x1="99.830002"
   y1="42.8447"
   x2="99.830002"
   y2="148.3013">
	<stop
   offset="0"
   style="stop-color:#359691"
   id="stop10" />
	<stop
   offset="1"
   style="stop-color:#42B292"
   id="stop12" />
</linearGradient>

<linearGradient
   id="SVGID_2_"
   gradientUnits="userSpaceOnUse"
   x1="99.831596"
   y1="162.688"
   x2="99.831596"
   y2="53.107899">
	<stop
   offset="0"
   style="stop-color:#359691"
   id="stop17" />
	<stop
   offset="0.3625"
   style="stop-color:#3AA291"
   id="stop19" />
	<stop
   offset="1"
   style="stop-color:#42B292"
   id="stop21" />
</linearGradient>
<g
   id="g166"
   transform="matrix(6.4900829,0,0,6.4900829,-47.71175,-51.042353)"><path
     class="st1"
     d="m 168.5,88.3 c -1.9,18.9 -16.7,29.5 -29.1,41.8 -6.6,6.5 -14.4,11.8 -20.8,18.2 12.9,-15.8 26,-40.4 22.4,-61.4 -3.4,-19.6 -21.2,-33.8 -41,-33.8 h -0.4 c -19.8,0 -37.6,14.1 -41,33.8 -3.7,21 9.5,45.6 22.4,61.4 C 74.5,141.9 66.8,136.6 60.2,130.1 47.8,117.8 33,107.1 31.1,88.3 27.4,51.6 71.5,28.6 99.8,52.9 c 28.4,-24.3 72.4,-1.4 68.7,35.4 z"
     id="path15"
     style="fill:url(#SVGID_1_)" /><path
     class="st2"
     d="m 118.6,148.3 c -6.3,6.2 -8.8,12.4 -18.8,14.4 -10,-2 -12.5,-8.2 -18.8,-14.4 C 68.1,132.5 55,107.9 58.6,86.9 62,67.3 79.8,53.1 99.6,53.1 h 0.4 c 19.8,0 37.6,14.1 41,33.8 3.7,21 -9.5,45.6 -22.4,61.4 z"
     id="path24"
     style="fill:url(#SVGID_2_);opacity:1" /></g>
</svg>
